<svg width="428" height="696" viewBox="0 0 428 696" fill="none" xmlns="http://www.w3.org/2000/svg">
<rect width="428" height="696" fill="white"/>
<path d="M50.3352 47.4545H54.6889L58.3821 56.4602H58.5526L62.2457 47.4545H66.5994V62H63.1761V53.0653H63.0554L59.5611 61.9077H57.3736L53.8793 53.0156H53.7585V62H50.3352V47.4545ZM68.1602 62L74.1119 47.4545H87.457V50.3097H80.8306V53.2926H86.9386V56.1548H80.8306V59.1449H87.457V62H77.315V50.9702H76.3136L72.0238 62H68.1602ZM71.5692 58.946V56.2756H79.3533V58.946H71.5692ZM102.031 47.4545V62H99.0479L93.2596 53.6051H93.1673V62H89.6516V47.4545H92.6772L98.4016 55.8352H98.5224V47.4545H102.031ZM109.618 62H104.241V47.4545H109.611C111.093 47.4545 112.369 47.7457 113.439 48.3281C114.514 48.9058 115.342 49.7391 115.925 50.8281C116.507 51.9124 116.798 53.2098 116.798 54.7202C116.798 56.2353 116.507 57.5374 115.925 58.6264C115.347 59.7154 114.521 60.5511 113.446 61.1335C112.371 61.7112 111.095 62 109.618 62ZM107.757 59.0028H109.483C110.297 59.0028 110.986 58.8655 111.55 58.5909C112.118 58.3116 112.546 57.8594 112.835 57.2344C113.129 56.6046 113.276 55.7666 113.276 54.7202C113.276 53.6738 113.129 52.8404 112.835 52.2202C112.542 51.5952 112.108 51.1454 111.536 50.8707C110.967 50.5914 110.267 50.4517 109.433 50.4517H107.757V59.0028ZM123.148 62V47.4545H126.663V53.6051H126.855L131.663 47.4545H135.804L130.648 53.946L135.896 62H131.692L128.07 56.2827L126.663 58.0582V62H123.148ZM150.06 54.7273C150.06 56.3277 149.752 57.6842 149.137 58.7969C148.521 59.9096 147.688 60.7547 146.637 61.3324C145.59 61.91 144.416 62.1989 143.114 62.1989C141.807 62.1989 140.631 61.9077 139.584 61.3253C138.538 60.7429 137.707 59.8977 137.091 58.7898C136.48 57.6771 136.175 56.3229 136.175 54.7273C136.175 53.1269 136.48 51.7704 137.091 50.6577C137.707 49.545 138.538 48.6998 139.584 48.1222C140.631 47.5445 141.807 47.2557 143.114 47.2557C144.416 47.2557 145.59 47.5445 146.637 48.1222C147.688 48.6998 148.521 49.545 149.137 50.6577C149.752 51.7704 150.06 53.1269 150.06 54.7273ZM146.466 54.7273C146.466 53.7803 146.331 52.9801 146.061 52.3267C145.796 51.6733 145.413 51.1785 144.911 50.8423C144.414 50.5062 143.815 50.3381 143.114 50.3381C142.418 50.3381 141.819 50.5062 141.317 50.8423C140.815 51.1785 140.429 51.6733 140.159 52.3267C139.894 52.9801 139.762 53.7803 139.762 54.7273C139.762 55.6742 139.894 56.4744 140.159 57.1278C140.429 57.7812 140.815 58.276 141.317 58.6122C141.819 58.9484 142.418 59.1165 143.114 59.1165C143.815 59.1165 144.414 58.9484 144.911 58.6122C145.413 58.276 145.796 57.7812 146.061 57.1278C146.331 56.4744 146.466 55.6742 146.466 54.7273ZM152.113 47.4545H156.466L160.159 56.4602H160.33L164.023 47.4545H168.377V62H164.953V53.0653H164.833L161.338 61.9077H159.151L155.657 53.0156H155.536V62H152.113V47.4545ZM170.57 47.4545H174.923L178.616 56.4602H178.787L182.48 47.4545H186.834V62H183.411V53.0653H183.29L179.795 61.9077H177.608L174.114 53.0156H173.993V62H170.57V47.4545ZM189.027 62V47.4545H199.169V50.3097H192.542V53.2926H198.65V56.1548H192.542V59.1449H199.169V62H189.027ZM201.37 62V47.4545H207.379C208.468 47.4545 209.408 47.651 210.199 48.044C210.994 48.4323 211.607 48.991 212.038 49.7202C212.469 50.4446 212.684 51.304 212.684 52.2983C212.684 53.3068 212.464 54.1638 212.024 54.8693C211.583 55.5701 210.958 56.1051 210.149 56.4744C209.339 56.839 208.38 57.0213 207.272 57.0213H203.473V54.2514H206.619C207.149 54.2514 207.592 54.1828 207.947 54.0455C208.307 53.9034 208.579 53.6903 208.764 53.4062C208.949 53.1174 209.041 52.7481 209.041 52.2983C209.041 51.8485 208.949 51.4768 208.764 51.1832C208.579 50.8849 208.307 50.6624 207.947 50.5156C207.587 50.3641 207.145 50.2884 206.619 50.2884H204.886V62H201.37ZM209.559 55.3523L213.181 62H209.346L205.795 55.3523H209.559ZM218.909 47.4545H223.263L226.956 56.4602H227.127L230.82 47.4545H235.174V62H231.75V53.0653H231.63L228.135 61.9077H225.948L222.453 53.0156H222.333V62H218.909V47.4545ZM237.366 62V47.4545H247.509V50.3097H240.882V53.2926H246.99V56.1548H240.882V59.1449H247.509V62H237.366ZM249.71 62V47.4545H255.719C256.808 47.4545 257.748 47.651 258.538 48.044C259.334 48.4323 259.947 48.991 260.378 49.7202C260.809 50.4446 261.024 51.304 261.024 52.2983C261.024 53.3068 260.804 54.1638 260.364 54.8693C259.923 55.5701 259.298 56.1051 258.489 56.4744C257.679 56.839 256.72 57.0213 255.612 57.0213H251.812V54.2514H254.959C255.489 54.2514 255.932 54.1828 256.287 54.0455C256.647 53.9034 256.919 53.6903 257.104 53.4062C257.288 53.1174 257.381 52.7481 257.381 52.2983C257.381 51.8485 257.288 51.4768 257.104 51.1832C256.919 50.8849 256.647 50.6624 256.287 50.5156C255.927 50.3641 255.484 50.2884 254.959 50.2884H253.226V62H249.71ZM257.899 55.3523L261.521 62H257.686L254.135 55.3523H257.899ZM262.952 62V47.4545H273.094V50.3097H266.468V53.2926H272.576V56.1548H266.468V59.1449H273.094V62H262.952ZM36.3313 86V71.4545H46.4734V74.3097H39.8469V77.2926H45.9549V80.1548H39.8469V83.1449H46.4734V86H36.3313ZM48.6751 86V71.4545H52.1907V83.1449H58.2418V86H48.6751ZM60.0618 86V71.4545H63.5774V83.1449H69.6286V86H60.0618ZM71.4485 86V71.4545H74.9641V83.1449H81.0153V86H71.4485ZM82.8352 86V71.4545H92.9773V74.3097H86.3509V77.2926H92.4588V80.1548H86.3509V83.1449H92.9773V86H82.8352ZM95.179 86V71.4545H101.188C102.277 71.4545 103.216 71.651 104.007 72.044C104.803 72.4323 105.416 72.991 105.847 73.7202C106.277 74.4446 106.493 75.304 106.493 76.2983C106.493 77.3068 106.273 78.1638 105.832 78.8693C105.392 79.5701 104.767 80.1051 103.957 80.4744C103.148 80.839 102.189 81.0213 101.081 81.0213H97.2812V78.2514H100.428C100.958 78.2514 101.401 78.1828 101.756 78.0455C102.116 77.9034 102.388 77.6903 102.572 77.4062C102.757 77.1174 102.849 76.7481 102.849 76.2983C102.849 75.8485 102.757 75.4768 102.572 75.1832C102.388 74.8849 102.116 74.6624 101.756 74.5156C101.396 74.3641 100.953 74.2884 100.428 74.2884H98.6946V86H95.179ZM103.368 79.3523L106.99 86H103.155L99.6037 79.3523H103.368ZM164.163 71.4545V86H160.648V71.4545H164.163ZM178.529 75.8153C178.482 75.2945 178.271 74.8897 177.897 74.6009C177.528 74.3073 177 74.1605 176.314 74.1605C175.859 74.1605 175.48 74.2197 175.177 74.3381C174.874 74.4564 174.647 74.6198 174.495 74.8281C174.344 75.0317 174.266 75.2661 174.261 75.5312C174.252 75.7491 174.294 75.9408 174.389 76.1065C174.488 76.2723 174.63 76.419 174.815 76.5469C175.004 76.67 175.232 76.7789 175.497 76.8736C175.762 76.9683 176.06 77.0511 176.392 77.1222L177.642 77.4062C178.361 77.5625 178.996 77.7708 179.545 78.0312C180.099 78.2917 180.563 78.6018 180.937 78.9616C181.316 79.3215 181.602 79.7358 181.797 80.2045C181.991 80.6733 182.09 81.1989 182.095 81.7812C182.09 82.6998 181.858 83.4882 181.399 84.1463C180.94 84.8045 180.279 85.3087 179.417 85.6591C178.56 86.0095 177.526 86.1847 176.314 86.1847C175.097 86.1847 174.036 86.0024 173.132 85.6378C172.227 85.2732 171.524 84.7192 171.022 83.9759C170.52 83.2325 170.262 82.2926 170.248 81.1562H173.615C173.643 81.625 173.769 82.0156 173.991 82.3281C174.214 82.6406 174.519 82.8774 174.907 83.0384C175.3 83.1993 175.755 83.2798 176.271 83.2798C176.744 83.2798 177.147 83.2159 177.478 83.0881C177.815 82.9602 178.073 82.7827 178.252 82.5554C178.432 82.3281 178.525 82.0677 178.529 81.7741C178.525 81.4995 178.44 81.2652 178.274 81.071C178.108 80.8722 177.852 80.7017 177.507 80.5597C177.166 80.4129 176.73 80.2779 176.2 80.1548L174.68 79.7997C173.421 79.5109 172.429 79.0445 171.704 78.4006C170.98 77.7519 170.62 76.8759 170.625 75.7727C170.62 74.8731 170.861 74.0848 171.349 73.4077C171.837 72.7306 172.511 72.2027 173.373 71.8239C174.235 71.4451 175.217 71.2557 176.321 71.2557C177.448 71.2557 178.425 71.4474 179.254 71.831C180.087 72.2098 180.734 72.7424 181.193 73.429C181.652 74.1155 181.886 74.911 181.896 75.8153H178.529ZM183.87 86V71.4545H189.879C190.968 71.4545 191.908 71.6676 192.699 72.0938C193.494 72.5152 194.107 73.1046 194.538 73.8622C194.969 74.6151 195.184 75.491 195.184 76.4901C195.184 77.4938 194.964 78.3722 194.524 79.125C194.088 79.8731 193.466 80.4531 192.656 80.8651C191.846 81.277 190.885 81.483 189.772 81.483H186.065V78.7131H189.119C189.649 78.7131 190.092 78.6207 190.447 78.4361C190.807 78.2514 191.079 77.9934 191.264 77.6619C191.449 77.3258 191.541 76.9351 191.541 76.4901C191.541 76.0402 191.449 75.652 191.264 75.3253C191.079 74.9938 190.807 74.7382 190.447 74.5582C190.087 74.3783 189.645 74.2884 189.119 74.2884H187.386V86H183.87ZM196.917 86V71.4545H202.926C204.015 71.4545 204.955 71.651 205.745 72.044C206.541 72.4323 207.154 72.991 207.585 73.7202C208.016 74.4446 208.231 75.304 208.231 76.2983C208.231 77.3068 208.011 78.1638 207.571 78.8693C207.13 79.5701 206.505 80.1051 205.696 80.4744C204.886 80.839 203.927 81.0213 202.819 81.0213H199.02V78.2514H202.166C202.696 78.2514 203.139 78.1828 203.494 78.0455C203.854 77.9034 204.126 77.6903 204.311 77.4062C204.495 77.1174 204.588 76.7481 204.588 76.2983C204.588 75.8485 204.495 75.4768 204.311 75.1832C204.126 74.8849 203.854 74.6624 203.494 74.5156C203.134 74.3641 202.691 74.2884 202.166 74.2884H200.433V86H196.917ZM205.106 79.3523L208.728 86H204.893L201.342 79.3523H205.106ZM213.675 71.4545V86H210.159V71.4545H213.675ZM215.406 74.3097V71.4545H227.7V74.3097H223.29V86H219.824V74.3097H215.406ZM229.417 86V71.4545H232.933V77.6051H233.125L237.933 71.4545H242.074L236.917 77.946L242.166 86H237.961L234.339 80.2827L232.933 82.0582V86H229.417ZM244.866 86.7315L243.375 85.723L253.901 70.7514L255.385 71.7599L244.866 86.7315ZM256.33 78.7273C256.33 80.3277 256.022 81.6842 255.406 82.7969C254.791 83.9096 253.957 84.7547 252.906 85.3324C251.86 85.91 250.686 86.1989 249.384 86.1989C248.077 86.1989 246.9 85.9077 245.854 85.3253C244.807 84.7429 243.976 83.8977 243.361 82.7898C242.75 81.6771 242.445 80.3229 242.445 78.7273C242.445 77.1269 242.75 75.7704 243.361 74.6577C243.976 73.545 244.807 72.6998 245.854 72.1222C246.9 71.5445 248.077 71.2557 249.384 71.2557C250.686 71.2557 251.86 71.5445 252.906 72.1222C253.957 72.6998 254.791 73.545 255.406 74.6577C256.022 75.7704 256.33 77.1269 256.33 78.7273ZM252.736 78.7273C252.736 77.7803 252.601 76.9801 252.331 76.3267C252.066 75.6733 251.682 75.1785 251.18 74.8423C250.683 74.5062 250.084 74.3381 249.384 74.3381C248.688 74.3381 248.089 74.5062 247.587 74.8423C247.085 75.1785 246.699 75.6733 246.429 76.3267C246.164 76.9801 246.031 77.7803 246.031 78.7273C246.031 79.6742 246.164 80.4744 246.429 81.1278C246.699 81.7812 247.085 82.276 247.587 82.6122C248.089 82.9484 248.688 83.1165 249.384 83.1165C250.084 83.1165 250.683 82.9484 251.18 82.6122C251.682 82.276 252.066 81.7812 252.331 81.1278C252.601 80.4744 252.736 79.6742 252.736 78.7273ZM258.382 86V71.4545H264.391C265.48 71.4545 266.42 71.651 267.21 72.044C268.006 72.4323 268.619 72.991 269.05 73.7202C269.481 74.4446 269.696 75.304 269.696 76.2983C269.696 77.3068 269.476 78.1638 269.036 78.8693C268.595 79.5701 267.97 80.1051 267.161 80.4744C266.351 80.839 265.392 81.0213 264.284 81.0213H260.484V78.2514H263.631C264.161 78.2514 264.604 78.1828 264.959 78.0455C265.319 77.9034 265.591 77.6903 265.776 77.4062C265.96 77.1174 266.053 76.7481 266.053 76.2983C266.053 75.8485 265.96 75.4768 265.776 75.1832C265.591 74.8849 265.319 74.6624 264.959 74.5156C264.599 74.3641 264.156 74.2884 263.631 74.2884H261.898V86H258.382ZM266.571 79.3523L270.193 86H266.358L262.807 79.3523H266.571ZM279.487 75.8153C279.439 75.2945 279.228 74.8897 278.854 74.6009C278.485 74.3073 277.957 74.1605 277.271 74.1605C276.816 74.1605 276.437 74.2197 276.134 74.3381C275.831 74.4564 275.604 74.6198 275.452 74.8281C275.301 75.0317 275.223 75.2661 275.218 75.5312C275.209 75.7491 275.251 75.9408 275.346 76.1065C275.445 76.2723 275.587 76.419 275.772 76.5469C275.961 76.67 276.189 76.7789 276.454 76.8736C276.719 76.9683 277.017 77.0511 277.349 77.1222L278.599 77.4062C279.318 77.5625 279.953 77.7708 280.502 78.0312C281.056 78.2917 281.52 78.6018 281.894 78.9616C282.273 79.3215 282.559 79.7358 282.754 80.2045C282.948 80.6733 283.047 81.1989 283.052 81.7812C283.047 82.6998 282.815 83.4882 282.356 84.1463C281.897 84.8045 281.236 85.3087 280.374 85.6591C279.517 86.0095 278.483 86.1847 277.271 86.1847C276.054 86.1847 274.993 86.0024 274.089 85.6378C273.184 85.2732 272.481 84.7192 271.979 83.9759C271.478 83.2325 271.219 82.2926 271.205 81.1562H274.572C274.6 81.625 274.726 82.0156 274.948 82.3281C275.171 82.6406 275.476 82.8774 275.864 83.0384C276.257 83.1993 276.712 83.2798 277.228 83.2798C277.701 83.2798 278.104 83.2159 278.435 83.0881C278.772 82.9602 279.03 82.7827 279.21 82.5554C279.389 82.3281 279.482 82.0677 279.487 81.7741C279.482 81.4995 279.397 81.2652 279.231 81.071C279.065 80.8722 278.809 80.7017 278.464 80.5597C278.123 80.4129 277.687 80.2779 277.157 80.1548L275.637 79.7997C274.378 79.5109 273.386 79.0445 272.661 78.4006C271.937 77.7519 271.577 76.8759 271.582 75.7727C271.577 74.8731 271.818 74.0848 272.306 73.4077C272.794 72.7306 273.469 72.2027 274.33 71.8239C275.192 71.4451 276.174 71.2557 277.278 71.2557C278.405 71.2557 279.382 71.4474 280.211 71.831C281.044 72.2098 281.691 72.7424 282.15 73.429C282.609 74.1155 282.844 74.911 282.853 75.8153H279.487ZM284.827 86V71.4545H294.969V74.3097H288.343V77.2926H294.451V80.1548H288.343V83.1449H294.969V86H284.827ZM297.171 86V71.4545H300.687V83.1449H306.738V86H297.171ZM316.42 75.8153C316.373 75.2945 316.162 74.8897 315.788 74.6009C315.419 74.3073 314.891 74.1605 314.204 74.1605C313.75 74.1605 313.371 74.2197 313.068 74.3381C312.765 74.4564 312.538 74.6198 312.386 74.8281C312.234 75.0317 312.156 75.2661 312.152 75.5312C312.142 75.7491 312.185 75.9408 312.279 76.1065C312.379 76.2723 312.521 76.419 312.706 76.5469C312.895 76.67 313.122 76.7789 313.387 76.8736C313.653 76.9683 313.951 77.0511 314.282 77.1222L315.532 77.4062C316.252 77.5625 316.886 77.7708 317.436 78.0312C317.99 78.2917 318.454 78.6018 318.828 78.9616C319.207 79.3215 319.493 79.7358 319.687 80.2045C319.881 80.6733 319.981 81.1989 319.985 81.7812C319.981 82.6998 319.749 83.4882 319.289 84.1463C318.83 84.8045 318.17 85.3087 317.308 85.6591C316.451 86.0095 315.416 86.1847 314.204 86.1847C312.987 86.1847 311.927 86.0024 311.022 85.6378C310.118 85.2732 309.415 84.7192 308.913 83.9759C308.411 83.2325 308.153 82.2926 308.139 81.1562H311.505C311.534 81.625 311.659 82.0156 311.882 82.3281C312.104 82.6406 312.41 82.8774 312.798 83.0384C313.191 83.1993 313.645 83.2798 314.162 83.2798C314.635 83.2798 315.038 83.2159 315.369 83.0881C315.705 82.9602 315.963 82.7827 316.143 82.5554C316.323 82.3281 316.415 82.0677 316.42 81.7741C316.415 81.4995 316.33 81.2652 316.164 81.071C315.999 80.8722 315.743 80.7017 315.397 80.5597C315.056 80.4129 314.621 80.2779 314.091 80.1548L312.571 79.7997C311.311 79.5109 310.319 79.0445 309.595 78.4006C308.87 77.7519 308.511 76.8759 308.515 75.7727C308.511 74.8731 308.752 74.0848 309.24 73.4077C309.727 72.7306 310.402 72.2027 311.264 71.8239C312.126 71.4451 313.108 71.2557 314.211 71.2557C315.338 71.2557 316.316 71.4474 317.145 71.831C317.978 72.2098 318.624 72.7424 319.083 73.429C319.543 74.1155 319.777 74.911 319.787 75.8153H316.42ZM334.858 71.4545H338.366V80.8366C338.366 81.9209 338.108 82.8655 337.592 83.6705C337.076 84.4706 336.356 85.0909 335.433 85.5312C334.51 85.9669 333.437 86.1847 332.216 86.1847C330.98 86.1847 329.9 85.9669 328.977 85.5312C328.054 85.0909 327.336 84.4706 326.825 83.6705C326.314 82.8655 326.058 81.9209 326.058 80.8366V71.4545H329.574V80.5312C329.574 81.0331 329.682 81.4806 329.9 81.8736C330.123 82.2666 330.433 82.5743 330.831 82.7969C331.228 83.0194 331.69 83.1307 332.216 83.1307C332.741 83.1307 333.2 83.0194 333.593 82.7969C333.991 82.5743 334.301 82.2666 334.524 81.8736C334.746 81.4806 334.858 81.0331 334.858 80.5312V71.4545ZM340.57 86V71.4545H344.085V77.2926H349.817V71.4545H353.325V86H349.817V80.1548H344.085V86H340.57ZM355.531 86V71.4545H365.673V74.3097H359.046V77.2926H365.154V80.1548H359.046V83.1449H365.673V86H355.531ZM367.874 86V71.4545H371.39V83.1449H377.441V86H367.874ZM384.637 86H379.261V71.4545H384.63C386.112 71.4545 387.388 71.7457 388.458 72.3281C389.533 72.9058 390.362 73.7391 390.944 74.8281C391.527 75.9124 391.818 77.2098 391.818 78.7202C391.818 80.2353 391.527 81.5374 390.944 82.6264C390.367 83.7154 389.54 84.5511 388.466 85.1335C387.391 85.7112 386.115 86 384.637 86ZM382.777 83.0028H384.502C385.317 83.0028 386.006 82.8655 386.569 82.5909C387.137 82.3116 387.566 81.8594 387.855 81.2344C388.148 80.6046 388.295 79.7666 388.295 78.7202C388.295 77.6738 388.148 76.8404 387.855 76.2202C387.561 75.5952 387.128 75.1454 386.555 74.8707C385.987 74.5914 385.286 74.4517 384.453 74.4517H382.777V83.0028Z" fill="#1A1A1A"/>
<path d="M279.117 50.3097V47.4545H291.411V50.3097H287.001V62H283.535V50.3097H279.117ZM296.644 47.4545V62H293.128V47.4545H296.644ZM298.851 62V47.4545H302.366V59.1449H308.418V62H298.851ZM318.1 51.8153C318.052 51.2945 317.842 50.8897 317.468 50.6009C317.098 50.3073 316.57 50.1605 315.884 50.1605C315.429 50.1605 315.051 50.2197 314.748 50.3381C314.444 50.4564 314.217 50.6198 314.066 50.8281C313.914 51.0317 313.836 51.2661 313.831 51.5312C313.822 51.7491 313.864 51.9408 313.959 52.1065C314.059 52.2723 314.201 52.419 314.385 52.5469C314.575 52.67 314.802 52.7789 315.067 52.8736C315.332 52.9683 315.631 53.0511 315.962 53.1222L317.212 53.4062C317.932 53.5625 318.566 53.7708 319.115 54.0312C319.669 54.2917 320.133 54.6018 320.507 54.9616C320.886 55.3215 321.173 55.7358 321.367 56.2045C321.561 56.6733 321.66 57.1989 321.665 57.7812C321.66 58.6998 321.428 59.4882 320.969 60.1463C320.51 60.8045 319.849 61.3087 318.988 61.6591C318.131 62.0095 317.096 62.1847 315.884 62.1847C314.667 62.1847 313.606 62.0024 312.702 61.6378C311.798 61.2732 311.095 60.7192 310.593 59.9759C310.091 59.2325 309.833 58.2926 309.819 57.1562H313.185C313.213 57.625 313.339 58.0156 313.561 58.3281C313.784 58.6406 314.089 58.8774 314.478 59.0384C314.871 59.1993 315.325 59.2798 315.841 59.2798C316.315 59.2798 316.717 59.2159 317.049 59.0881C317.385 58.9602 317.643 58.7827 317.823 58.5554C318.003 58.3281 318.095 58.0677 318.1 57.7741C318.095 57.4995 318.01 57.2652 317.844 57.071C317.678 56.8722 317.423 56.7017 317.077 56.5597C316.736 56.4129 316.301 56.2779 315.77 56.1548L314.25 55.7997C312.991 55.5109 311.999 55.0445 311.275 54.4006C310.55 53.7519 310.19 52.8759 310.195 51.7727C310.19 50.8731 310.432 50.0848 310.919 49.4077C311.407 48.7306 312.082 48.2027 312.944 47.8239C313.805 47.4451 314.788 47.2557 315.891 47.2557C317.018 47.2557 317.996 47.4474 318.824 47.831C319.658 48.2098 320.304 48.7424 320.763 49.429C321.222 50.1155 321.457 50.911 321.466 51.8153H318.1ZM323.441 62V47.4545H326.956V53.6051H327.148L331.956 47.4545H336.097L330.941 53.946L336.189 62H331.985L328.363 56.2827L326.956 58.0582V62H323.441ZM340.63 62H336.852L341.759 47.4545H346.44L351.347 62H347.569L344.153 51.1193H344.039L340.63 62ZM340.126 56.2756H348.023V58.946H340.126V56.2756ZM358.29 62H352.913V47.4545H358.283C359.765 47.4545 361.041 47.7457 362.111 48.3281C363.186 48.9058 364.014 49.7391 364.597 50.8281C365.179 51.9124 365.47 53.2098 365.47 54.7202C365.47 56.2353 365.179 57.5374 364.597 58.6264C364.019 59.7154 363.193 60.5511 362.118 61.1335C361.043 61.7112 359.767 62 358.29 62ZM356.429 59.0028H358.155C358.969 59.0028 359.658 58.8655 360.222 58.5909C360.79 58.3116 361.218 57.8594 361.507 57.2344C361.801 56.6046 361.947 55.7666 361.947 54.7202C361.947 53.6738 361.801 52.8404 361.507 52.2202C361.214 51.5952 360.78 51.1454 360.207 50.8707C359.639 50.5914 358.938 50.4517 358.105 50.4517H356.429V59.0028ZM367.523 62V47.4545H377.665V50.3097H371.038V53.2926H377.146V56.1548H371.038V59.1449H377.665V62H367.523ZM118.094 86H112.718V71.4545H118.087C119.569 71.4545 120.845 71.7457 121.915 72.3281C122.99 72.9058 123.819 73.7391 124.401 74.8281C124.984 75.9124 125.275 77.2098 125.275 78.7202C125.275 80.2353 124.984 81.5374 124.401 82.6264C123.824 83.7154 122.997 84.5511 121.923 85.1335C120.848 85.7112 119.572 86 118.094 86ZM116.234 83.0028H117.96C118.774 83.0028 119.463 82.8655 120.026 82.5909C120.594 82.3116 121.023 81.8594 121.312 81.2344C121.605 80.6046 121.752 79.7666 121.752 78.7202C121.752 77.6738 121.605 76.8404 121.312 76.2202C121.018 75.5952 120.585 75.1454 120.012 74.8707C119.444 74.5914 118.743 74.4517 117.91 74.4517H116.234V83.0028ZM129.593 86.7315L128.102 85.723L138.627 70.7514L140.112 71.7599L129.593 86.7315ZM141.056 78.7273C141.056 80.3277 140.748 81.6842 140.133 82.7969C139.517 83.9096 138.684 84.7547 137.633 85.3324C136.586 85.91 135.412 86.1989 134.11 86.1989C132.803 86.1989 131.627 85.9077 130.58 85.3253C129.534 84.7429 128.703 83.8977 128.087 82.7898C127.477 81.6771 127.171 80.3229 127.171 78.7273C127.171 77.1269 127.477 75.7704 128.087 74.6577C128.703 73.545 129.534 72.6998 130.58 72.1222C131.627 71.5445 132.803 71.2557 134.11 71.2557C135.412 71.2557 136.586 71.5445 137.633 72.1222C138.684 72.6998 139.517 73.545 140.133 74.6577C140.748 75.7704 141.056 77.1269 141.056 78.7273ZM137.462 78.7273C137.462 77.7803 137.327 76.9801 137.058 76.3267C136.792 75.6733 136.409 75.1785 135.907 74.8423C135.41 74.5062 134.811 74.3381 134.11 74.3381C133.414 74.3381 132.815 74.5062 132.313 74.8423C131.811 75.1785 131.425 75.6733 131.156 76.3267C130.89 76.9801 130.758 77.7803 130.758 78.7273C130.758 79.6742 130.89 80.4744 131.156 81.1278C131.425 81.7812 131.811 82.276 132.313 82.6122C132.815 82.9484 133.414 83.1165 134.11 83.1165C134.811 83.1165 135.41 82.9484 135.907 82.6122C136.409 82.276 136.792 81.7812 137.058 81.1278C137.327 80.4744 137.462 79.6742 137.462 78.7273ZM143.109 86V71.4545H149.117C150.206 71.4545 151.146 71.651 151.937 72.044C152.732 72.4323 153.345 72.991 153.776 73.7202C154.207 74.4446 154.423 75.304 154.423 76.2983C154.423 77.3068 154.202 78.1638 153.762 78.8693C153.322 79.5701 152.697 80.1051 151.887 80.4744C151.077 80.839 150.119 81.0213 149.011 81.0213H145.211V78.2514H148.357C148.888 78.2514 149.33 78.1828 149.685 78.0455C150.045 77.9034 150.317 77.6903 150.502 77.4062C150.687 77.1174 150.779 76.7481 150.779 76.2983C150.779 75.8485 150.687 75.4768 150.502 75.1832C150.317 74.8849 150.045 74.6624 149.685 74.5156C149.326 74.3641 148.883 74.2884 148.357 74.2884H146.624V86H143.109ZM151.298 79.3523L154.92 86H151.085L147.533 79.3523H151.298Z" fill="#F57F30"/>
<path d="M155.867 138.287L155.865 138.288C141.791 145.002 133.601 156.681 132.314 171.324C131.031 188.044 139.237 202.671 154.432 210.397C158.353 212.391 160.787 213.453 163.237 214.042C165.684 214.631 168.231 214.767 172.419 214.767C188.757 214.767 202.113 206.314 209.605 191.076C211.735 186.688 212.749 180.745 212.603 174.603C212.457 168.468 211.157 162.29 208.804 157.457L208.803 157.456C206.634 152.99 203.093 148.468 199.032 144.7C194.965 140.926 190.475 137.998 186.466 136.62C176.697 133.278 164.972 133.927 155.867 138.287Z" fill="#D9D9D9" stroke="black" stroke-width="3"/>
<path d="M110.994 236.186C98.9659 241.231 91.4976 248.55 85.5121 261.168C85.5107 261.171 85.5093 261.174 85.5079 261.177L82.0509 268.731L81.6526 348.007C81.6526 348.008 81.6526 348.008 81.6526 348.008C81.6405 350.668 81.6285 353.244 81.617 355.74C81.4366 394.655 81.347 414.009 82.2632 424.149C82.7533 429.574 83.5153 432.053 84.4818 433.456C85.3182 434.671 86.3563 435.2 88.2306 436.154C88.4646 436.274 88.7116 436.399 88.9728 436.534L88.984 436.54L88.9951 436.546C91.4674 437.872 94.6463 438.567 97.8859 438.567C101.126 438.567 104.304 437.872 106.777 436.546L106.788 436.54L106.798 436.534C106.918 436.473 107.035 436.413 107.148 436.354C109.168 435.315 110.295 434.735 111.178 433.5C112.126 432.173 112.882 429.918 113.394 425.141C114.387 415.886 114.387 398.25 114.386 362.556L114.386 359.334C114.386 331.67 114.486 314.418 114.753 303.829C114.887 298.54 115.062 294.881 115.292 292.408C115.407 291.173 115.538 290.199 115.693 289.45C115.838 288.745 116.035 288.073 116.371 287.569L116.407 287.514L116.448 287.464C117.103 286.645 117.92 285.978 118.777 285.597C119.572 285.243 120.74 285.007 121.759 285.669C122.078 285.871 122.243 286.136 122.308 286.248C122.395 286.399 122.45 286.544 122.485 286.649C122.556 286.86 122.606 287.096 122.646 287.321C122.727 287.781 122.797 288.408 122.861 289.185C122.99 290.749 123.105 293.066 123.208 296.201C123.415 302.479 123.577 312.119 123.703 325.754C123.953 353.028 124.053 396.335 124.053 460.801C124.053 543.274 124.086 586.56 124.419 609.863C124.586 621.523 124.827 628.136 125.172 632.141C125.515 636.122 125.95 637.388 126.442 638.425L126.447 638.437L126.453 638.45C132.335 651.466 148.567 655.67 159.642 647.209L159.647 647.205C160.231 646.763 160.756 646.38 161.234 646.033C162.929 644.799 164.016 644.008 164.916 642.601C166.053 640.824 166.904 637.963 167.476 631.828C168.505 620.785 168.581 600.026 168.732 558.172C168.749 553.613 168.766 548.804 168.786 543.729C168.786 543.729 168.786 543.729 168.786 543.728L170.286 543.734L110.994 236.186Z" fill="#D9D9D9" stroke="black" stroke-width="3"/>
<path d="M88.9652 435.794L88.9765 435.8L88.9876 435.806C91.4562 437.136 94.6303 437.832 97.8652 437.832C101.1 437.832 104.274 437.136 106.743 435.806L106.754 435.8L106.765 435.795C106.884 435.733 107.001 435.673 107.115 435.614C109.131 434.573 110.257 433.991 111.139 432.753C112.086 431.421 112.842 429.159 113.354 424.369C114.346 415.09 114.345 397.41 114.344 361.627L114.344 358.396C114.344 330.662 114.444 313.367 114.711 302.752C114.844 297.448 115.02 293.781 115.25 291.302C115.364 290.064 115.495 289.088 115.65 288.338C115.795 287.632 115.991 286.958 116.326 286.454L116.362 286.4L116.403 286.349C117.057 285.528 117.872 284.859 118.729 284.477C119.525 284.122 120.695 283.885 121.714 284.55C122.032 284.753 122.197 285.018 122.262 285.13C122.348 285.281 122.403 285.426 122.438 285.53C122.509 285.742 122.559 285.978 122.598 286.203C122.679 286.664 122.749 287.292 122.813 288.071C122.942 289.638 123.057 291.962 123.16 295.104C123.366 301.397 123.529 311.061 123.654 324.731C123.903 352.074 124.003 395.489 124.003 460.118C124.003 542.799 124.037 586.194 124.369 609.555C124.536 621.246 124.777 627.875 125.121 631.89C125.464 635.882 125.899 637.153 126.39 638.193L126.396 638.206L126.401 638.218C132.278 651.27 148.489 655.48 159.546 647L159.552 646.996C160.135 646.553 160.66 646.17 161.136 645.822C162.829 644.585 163.915 643.791 164.815 642.38C165.951 640.598 166.801 637.728 167.373 631.577C168.401 620.506 168.476 599.694 168.628 557.735C168.644 553.164 168.662 548.342 168.681 543.254C168.814 501.358 168.948 478.078 169.298 465.09C169.473 458.609 169.702 454.629 170.024 452.163C170.184 450.934 170.375 450.003 170.628 449.296C170.885 448.577 171.248 447.971 171.823 447.548L171.827 447.545C172.71 446.9 173.675 446.449 174.773 446.374C175.869 446.299 176.918 446.61 177.949 447.167C178.462 447.44 178.94 447.845 179.316 448.547C179.651 449.173 179.877 449.984 180.055 451.032C180.412 453.134 180.654 456.693 180.837 462.881C181.204 475.303 181.337 498.687 181.537 543.12V543.12L181.934 636.088L185.658 641.445C195.822 655.667 215.223 654.623 223.467 639.454L223.479 639.431L223.493 639.408C223.818 638.857 224.225 637.547 224.552 632.997C224.871 628.552 225.108 621.276 225.299 609.085C225.682 584.719 225.882 540.853 226.215 461.047C226.481 383.791 226.714 340.004 227.097 315.531C227.288 303.302 227.518 295.865 227.81 291.478C227.955 289.298 228.119 287.803 228.319 286.832C228.416 286.361 228.542 285.9 228.738 285.523C228.903 285.206 229.392 284.447 230.378 284.447C231.439 284.447 232.033 285.214 232.316 285.794C232.595 286.366 232.781 287.136 232.931 288.065C233.236 289.961 233.467 293.077 233.658 298.02C234.042 307.938 234.275 325.508 234.542 356.108C234.576 359.481 234.607 362.703 234.637 365.782C234.963 399.091 235.125 415.672 236.359 424.505C237.03 429.312 237.986 431.502 239.206 432.838C240.294 434.029 241.669 434.674 243.873 435.709C244.268 435.894 244.69 436.092 245.142 436.308L245.148 436.311L245.155 436.314C247.911 437.664 249.355 438.244 250.66 438.394C251.923 438.539 253.192 438.295 255.653 437.561L255.669 437.556L255.686 437.551C256.97 437.2 258.605 436.437 260.212 435.485C261.797 434.547 263.253 433.485 264.217 432.584L267.498 429.173L267.234 347.843V347.841L266.836 266.236L263.382 258.918L263.378 258.91L263.375 258.903C262.196 256.333 260.768 253.847 259.142 251.5H90.2778C88.571 254.022 86.9955 256.832 85.5082 259.979C85.5068 259.982 85.5054 259.985 85.504 259.988L82.0503 267.563L81.6524 347.041C81.6524 347.041 81.6524 347.041 81.6524 347.041C81.6403 349.708 81.6284 352.291 81.6168 354.793C81.4367 393.805 81.3471 413.209 82.2623 423.375C82.752 428.814 83.5132 431.3 84.4795 432.709C85.3151 433.927 86.3519 434.457 88.2236 435.414C88.4574 435.533 88.7042 435.66 88.9652 435.794Z" fill="#F57F30" stroke="black" stroke-width="3"/>
<path d="M277.37 241L284.703 226.476V226.36H276.127V222.818H289.248V226.387L281.889 241H277.37ZM292.922 241L300.255 226.476V226.36H291.679V222.818H304.8V226.387L297.44 241H292.922ZM308.553 238.514L308.473 239.5C308.402 240.316 308.257 241.112 308.038 241.888C307.825 242.669 307.597 243.37 307.355 243.992C307.112 244.613 306.92 245.096 306.778 245.439H304.043C304.138 245.096 304.265 244.613 304.425 243.992C304.591 243.37 304.745 242.669 304.887 241.888C305.029 241.107 305.109 240.313 305.126 239.509L305.144 238.514H308.553ZM318.738 241.249C317.413 241.249 316.235 241.009 315.205 240.529C314.175 240.05 313.361 239.39 312.763 238.55C312.172 237.709 311.864 236.745 311.84 235.656H316.102C316.137 236.324 316.409 236.863 316.918 237.271C317.427 237.674 318.034 237.875 318.738 237.875C319.289 237.875 319.777 237.754 320.203 237.511C320.629 237.268 320.964 236.928 321.206 236.49C321.449 236.046 321.567 235.537 321.561 234.963C321.567 234.377 321.446 233.865 321.197 233.427C320.955 232.989 320.617 232.649 320.185 232.406C319.759 232.158 319.268 232.033 318.712 232.033C318.185 232.027 317.685 232.143 317.211 232.38C316.744 232.616 316.389 232.939 316.146 233.347L312.266 232.619L313.056 222.818H324.722V226.36H316.67L316.252 230.648H316.359C316.661 230.145 317.146 229.731 317.815 229.406C318.49 229.074 319.256 228.908 320.114 228.908C321.203 228.908 322.174 229.163 323.026 229.672C323.884 230.175 324.559 230.873 325.05 231.767C325.548 232.661 325.796 233.685 325.796 234.839C325.796 236.088 325.5 237.194 324.908 238.159C324.322 239.124 323.5 239.881 322.44 240.432C321.387 240.976 320.153 241.249 318.738 241.249ZM338.392 237.591V236.632C338.392 235.886 338.551 235.197 338.871 234.564C339.197 233.93 339.667 233.421 340.283 233.037C340.898 232.652 341.65 232.46 342.538 232.46C343.443 232.46 344.204 232.652 344.819 233.037C345.441 233.415 345.908 233.921 346.222 234.555C346.541 235.182 346.701 235.875 346.701 236.632V237.591C346.701 238.337 346.541 239.026 346.222 239.659C345.902 240.293 345.432 240.802 344.81 241.186C344.189 241.571 343.431 241.763 342.538 241.763C341.638 241.763 340.88 241.571 340.265 241.186C339.649 240.802 339.182 240.293 338.862 239.659C338.548 239.026 338.392 238.337 338.392 237.591ZM341.224 236.632V237.591C341.224 237.97 341.315 238.334 341.499 238.683C341.688 239.032 342.034 239.207 342.538 239.207C343.052 239.207 343.399 239.038 343.576 238.701C343.754 238.357 343.843 237.987 343.843 237.591V236.632C343.843 236.236 343.757 235.863 343.585 235.513C343.419 235.158 343.07 234.981 342.538 234.981C342.04 234.981 341.697 235.158 341.508 235.513C341.318 235.863 341.224 236.236 341.224 236.632ZM328.963 227.186V226.227C328.963 225.47 329.126 224.777 329.452 224.15C329.783 223.517 330.257 223.011 330.872 222.632C331.488 222.247 332.233 222.055 333.109 222.055C334.015 222.055 334.775 222.247 335.391 222.632C336.012 223.011 336.483 223.517 336.802 224.15C337.122 224.777 337.282 225.47 337.282 226.227V227.186C337.282 227.944 337.119 228.636 336.794 229.263C336.474 229.891 336.003 230.391 335.382 230.764C334.761 231.137 334.003 231.323 333.109 231.323C332.216 231.323 331.458 231.134 330.837 230.755C330.221 230.376 329.753 229.873 329.434 229.246C329.12 228.618 328.963 227.932 328.963 227.186ZM331.822 226.227V227.186C331.822 227.583 331.914 227.953 332.097 228.296C332.287 228.633 332.624 228.802 333.109 228.802C333.63 228.802 333.976 228.633 334.148 228.296C334.326 227.953 334.414 227.583 334.414 227.186V226.227C334.414 225.831 334.331 225.458 334.166 225.109C334 224.754 333.648 224.576 333.109 224.576C332.612 224.576 332.272 224.757 332.088 225.118C331.911 225.479 331.822 225.848 331.822 226.227ZM330.304 241L342.804 222.818H345.228L332.728 241H330.304Z" fill="#1A1A1A"/>
<path d="M89.5 251H269H349" stroke="#1A1A1A" stroke-width="3" stroke-linecap="round"/>
<path d="M91.5 247.5C89.1 250.3 88.1667 252 88 252.5L85 254L83 249.5V246L92.5 242C93.1667 242.667 93.9 244.7 91.5 247.5Z" fill="white" stroke="white" stroke-linecap="round"/>
</svg>
